<?xml version="1.0" standalone="no"?>
<!DOCTYPE svg PUBLIC "-//W3C//DTD SVG 20010904//EN"
 "http://www.w3.org/TR/2001/REC-SVG-20010904/DTD/svg10.dtd">
<svg version="1.0" xmlns="http://www.w3.org/2000/svg"
 width="260.000000pt" height="260.000000pt" viewBox="0 0 260.000000 260.000000"
 preserveAspectRatio="xMidYMid meet">
<metadata>
Created by potrace 1.11, written by Peter Selinger 2001-2013
</metadata>
<g transform="translate(0.000000,260.000000) scale(0.100000,-0.100000)"
fill="#000000" stroke="none">
<path d="M0 1300 l0 -1300 1300 0 1300 0 0 1300 0 1300 -1300 0 -1300 0 0
-1300z m1938 500 c31 -11 32 -14 32 -66 0 -30 -1 -54 -2 -54 -2 0 -28 10 -58
22 -42 16 -77 22 -145 22 -83 1 -96 -2 -157 -32 -104 -51 -161 -137 -180 -272
-25 -169 39 -317 164 -381 82 -42 242 -42 330 1 23 11 43 20 45 20 2 0 3 -21
1 -47 l-3 -48 -55 -18 c-121 -40 -278 -33 -380 18 -53 27 -129 105 -159 163
-69 135 -66 341 6 474 49 91 168 182 270 208 50 12 249 6 291 -10z m-1136
-216 l110 -227 116 227 115 226 54 0 c29 0 53 -2 53 -3 0 -2 -65 -126 -145
-276 l-145 -272 0 -165 0 -164 -50 0 -50 0 0 164 0 165 -140 269 c-77 149
-140 273 -140 276 0 3 25 6 56 6 l55 0 111 -226z"/>
</g>
</svg>
